<svg
    xmlns="http://www.w3.org/2000/svg"
    version="1.1"
    xmlns:xlink="http://www.w3.org/1999/xlink"
    xmlns:svgjs="http://svgjs.dev/svgjs"
    width="1440"
    height="560"
    preserveAspectRatio="none"
    viewBox="0 0 1440 560"
>
    <style>
        @keyframes wave1-anim {
            0% { transform: translate(0, 0); }
            25% { transform: translate(50px, 30px); }
            50% { transform: translate(100px, 0px); }
            75% { transform: translate(50px, -30px); }
            100% { transform: translate(0, 0); }
        }
        @keyframes wave2-anim {
            0% { transform: translate(0, 0); }
            25% { transform: translate(-60px, 5px); }
            50% { transform: translate(-120px, 10px); }
            75% { transform: translate(-60px, 20px); }
            100% { transform: translate(0, 0); }
        }
        @keyframes wave3-anim {
            0% { transform: translate(0, 0); }
            25% { transform: translate(40px, -40px); }
            50% { transform: translate(80px, 0px); }
            75% { transform: translate(40px, 40px); }
            100% { transform: translate(0, 0); }
        }
        @keyframes wave4-anim {
            0% { transform: translate(0, 0); }
            25% { transform: translate(-30px, 50px); }
            50% { transform: translate(-60px, 0px); }
            75% { transform: translate(-30px, -50px); }
            100% { transform: translate(0, 0); }
        }

        #wave1 { animation: wave1-anim 25s ease-in-out infinite; }
        #wave2 { animation: wave2-anim 28s ease-in-out infinite; }
        #wave3 { animation: wave3-anim 22s ease-in-out infinite; }
        #wave4 { animation: wave4-anim 30s ease-in-out infinite; }
    </style>
    <g mask="url(&quot;#SvgjsMask1001&quot;)" fill="none">
        <path
            id="wave1"
            d="M -449.1530380983559,387 C -353.15,344 -161.15,188.4 30.846961901644097,172 C 222.85,155.6 318.85,295 510.8469619016441,305 C 702.85,315 798.85,197.2 990.8469619016441,222 C 1182.85,246.8 1381.02,427.2 1470.8469619016441,429 C 1560.68,430.8 1446.17,270.6 1640,231"
            stroke="rgba(51, 121, 194, 0.58)"
            stroke-width="2"
        />
        <path
            id="wave2"
            d="M -521.2354799251873,253 C -425.24,276.6 -233.24,367.4 -41.23547992518725,371 C 150.76,374.6 246.76,245.2 438.76452007481276,271 C 630.76,296.8 726.76,504.8 918.7645200748127,500 C 1110.76,495.2 1294.52,280.4 1398.7645200748127,247 C 1503.01,213.6 1431.75,315.8 1640,333"
            stroke="rgba(51, 121, 194, 0.58)"
            stroke-width="2"
        />
        <path
            id="wave3"
            d="M -182.64665469391588,455 C -86.65,411.6 105.35,239.4 297.3533453060841,238 C 489.35,236.6 585.35,473.4 777.3533453060841,448 C 969.35,422.6 1065.35,138.6 1257.353345306084,111 C 1449.35,83.4 1700.82,289.8 1737.353345306084,310 C 1773.88,330.2 1499.47,231.6 1640,212"
            stroke="rgba(51, 121, 194, 0.58)"
            stroke-width="2"
        />
        <path
            id="wave4"
            d="M -935.3757759541811,239 C -839.38,274.8 -647.38,414.6 -455.3757759541811,418 C -263.38,421.4 -167.38,256 24.62422404581889,256 C 216.62,256 312.62,435.8 504.6242240458189,418 C 696.62,400.2 797.55,178.8 984.6242240458189,167 C 1171.7,155.2 1348.92,320.6 1640,359"
            stroke="rgba(51, 121, 194, 0.58)"
            stroke-width="2"
        />
    </g>
    <defs>
        <mask id="SvgjsMask1001">
            <rect width="1440" height="560" fill="#ffffff" />
        </mask>
    </defs>
</svg>
